# xmcd
#
# Track frame offsets: 
#        150
#        34270
#        79550
#        109280
#        123007
#        154510
#        170412
#        179572
#        191652
#        211377
#        239287
#        320075
#
# Disc length: 4503 seconds
#
# Revision: 4
# Processed by: cddbd v1.5.2PL0 Copyright (c) Steve Scherf et al.
# Submitted via: ExactAudioCopy v0.99pb5
#
DISCID=9f11950c
DTITLE=Tom Waits - Blue
DYEAR=1984
DGENRE=
TTITLE0=Tom Trauberts Blues
TTITLE1=Small Change - Big Spender
TTITLE2=Romeo is Bleeding
TTITLE3=Arnie's back in Town
TTITLE4=Jitterbug Boy - Better of without a Wife
TTITLE5=I Wish I Was in New Orleans
TTITLE6=When the Saints
TTITLE7=Since I Fell for You
TTITLE8=Red Shoes
TTITLE9=X-Mas Card from a Hooker in Minneapolis
TTITLE10=Do the Hokey Cokey - Pasties and a G-String
TTITLE11=Borma Shave
EXTD=
EXTT0=
EXTT1=
EXTT2=
EXTT3=
EXTT4=
EXTT5=
EXTT6=
EXTT7=
EXTT8=
EXTT9=
EXTT10=
EXTT11=
PLAYORDER=
